<?xml version="1.0" encoding="utf-8"?>
<!-- Generator: Adobe Illustrator 23.0.6, SVG Export Plug-In . SVG Version: 6.00 Build 0)  -->
<svg version="1.1" id="Layer_1" xmlns="http://www.w3.org/2000/svg" xmlns:xlink="http://www.w3.org/1999/xlink" x="0px" y="0px"
	 viewBox="0 0 100 100" style="enable-background:new 0 0 100 100;" xml:space="preserve">
<style type="text/css">
	.st0{fill:#36383B;}
</style>
<g>
	<path class="st0" d="M87.5,38c0,2.1-0.9,3.8-2,3.8h-71c-1.1,0-2-1.7-2-3.8l0,0c0-2.1,0.9-3.8,2-3.8h71C86.6,34.2,87.5,35.9,87.5,38
		L87.5,38z"/>
</g>
<g>
	<path class="st0" d="M87.5,50c0,2.1-0.9,3.8-2,3.8h-71c-1.1,0-2-1.7-2-3.8l0,0c0-2.1,0.9-3.8,2-3.8h71C86.6,46.2,87.5,47.9,87.5,50
		L87.5,50z"/>
</g>
<g>
	<path class="st0" d="M87.5,62c0,2.1-0.9,3.8-2,3.8h-71c-1.1,0-2-1.7-2-3.8l0,0c0-2.1,0.9-3.8,2-3.8h71C86.6,58.2,87.5,59.9,87.5,62
		L87.5,62z"/>
</g>
</svg>
